<?xml version="1.0" encoding="UTF-8" standalone="no"?>
<!-- Created with Inkscape (http://www.inkscape.org/) -->

<svg
   width="107.59055mm"
   height="28.133184mm"
   viewBox="0 0 107.59055 28.133184"
   version="1.1"
   id="svg5"
   inkscape:export-filename="logo.png"
   inkscape:export-xdpi="96"
   inkscape:export-ydpi="96"
   inkscape:version="1.2.2 (732a01da63, 2022-12-09)"
   sodipodi:docname="Logo.svg"
   xml:space="preserve"
   xmlns:inkscape="http://www.inkscape.org/namespaces/inkscape"
   xmlns:sodipodi="http://sodipodi.sourceforge.net/DTD/sodipodi-0.dtd"
   xmlns="http://www.w3.org/2000/svg"
   xmlns:svg="http://www.w3.org/2000/svg"><sodipodi:namedview
     id="namedview7"
     pagecolor="#ffffff"
     bordercolor="#000000"
     borderopacity="0.25"
     inkscape:showpageshadow="2"
     inkscape:pageopacity="0.0"
     inkscape:pagecheckerboard="0"
     inkscape:deskcolor="#d1d1d1"
     inkscape:document-units="mm"
     showgrid="false"
     inkscape:zoom="4.2179992"
     inkscape:cx="181.24707"
     inkscape:cy="64.248471"
     inkscape:window-width="1920"
     inkscape:window-height="1017"
     inkscape:window-x="-8"
     inkscape:window-y="-8"
     inkscape:window-maximized="1"
     inkscape:current-layer="g416" /><defs
     id="defs2"><rect
       x="-112.6543"
       y="182.33858"
       width="169.4346"
       height="64.385818"
       id="rect412" /></defs><g
     inkscape:label="Capa 1"
     inkscape:groupmode="layer"
     id="layer1"
     transform="translate(7.740465,-142.04294)"><text
       xml:space="preserve"
       style="font-weight:bold;font-size:41.3831px;font-family:Calibri;-inkscape-font-specification:'Calibri Bold';fill:#ffffff;stroke:#ffffff;stroke-width:0.286594"
       x="-41.162346"
       y="157.64047"
       id="text292"><tspan
         sodipodi:role="line"
         id="tspan290"
         style="stroke-width:0.286594"
         x="-41.162346"
         y="157.64047" /></text><g
       id="g416"><path
         style="fill:#f0f0f0;fill-opacity:1;stroke-width:0.264583"
         d="m 8.2429879,169.8631 c -0.679659,-0.54762 -0.749295,-1.18503 -0.20505,-1.87693 0.432279,-0.54955 0.514382,-1.08014 0.514382,-3.32418 v -2.67024 h -0.79375 c -0.776962,0 -0.79375,0.0282 -0.79375,1.33363 0,0.94955 0.163777,1.55515 0.568677,2.1028 0.540739,0.73139 0.546939,0.80236 0.126193,1.4445 -0.481018,0.73413 -1.66338,0.92389 -2.229453,0.35782 -0.431988,-0.43199 -0.399439,-1.32512 0.07096,-1.94704 0.223586,-0.2956 0.39203,-1.10315 0.396875,-1.90265 l 0.0084,-1.38906 h -0.926042 -0.926042 v 2.64583 2.64583 h -2.513541 c -2.16076495,0 -2.587811,0.0743 -3.042709,0.52917 -0.291041,0.29104 -0.70776,0.52917 -0.926041,0.52917 -0.218282,0 -0.635,-0.23813 -0.926042,-0.52917 -0.291042,-0.29104 -0.529167,-0.70776 -0.529167,-0.92604 0,-0.21828 0.238125,-0.635 0.529167,-0.92604 0.291042,-0.29104 0.70776,-0.52917 0.926042,-0.52917 0.218281,0 0.635,0.23813 0.926041,0.52917 0.441399,0.4414 0.88194405,0.52916 2.656134,0.52916 h 2.126969 l -0.07645,-2.3049 -0.07645,-2.30491 -0.88441,-0.18023 c -0.486426,-0.0991 -1.016254,-0.31208 -1.177396,-0.47322 -0.16114195,-0.16114 -0.98836895,-0.29299 -1.83828195,-0.29299 -1.16612005,0 -1.73403705,0.13954 -2.31447505,0.56868 -0.731388,0.54074 -0.802357,0.54694 -1.444495,0.12619 -0.774131,-0.50723 -0.894567,-1.49615 -0.259543,-2.13118 0.566264,-0.56626 1.329872,-0.52221 1.965476,0.1134 0.32758,0.32758 0.881943,0.52916 1.455208,0.52916 0.50932305,0 0.92604205,-0.0418 0.92604205,-0.0928 0,-0.051 -0.13071,-0.46776 -0.290468,-0.92604 -0.28976405,-0.83122 -0.29509805,-0.83323 -2.20795105,-0.83323 -1.581464,0 -2.001403,0.0927 -2.396373,0.52917 -0.665627,0.73551 -1.613787,0.67233 -2.148099,-0.14313 -0.807257,-1.23203 0.455409,-2.66704 1.741231,-1.97889 0.296537,0.1587 0.53916,0.40343 0.53916,0.54383 0,0.14239 0.922663,0.25527 2.086636,0.25527 h 2.086637 l 0.11649805,-0.79375 c 0.106331,-0.72448 0.05029,-0.79375 -0.64214405,-0.79375 -0.41725,0 -1.104767,0.2559 -1.527815,0.56868 -0.731388,0.54074 -0.802357,0.54694 -1.444495,0.12619 -0.774131,-0.50723 -0.894567,-1.49616 -0.259543,-2.13118 0.526351,-0.52635 1.536266,-0.53606 1.965476,-0.0189 0.499565,0.60194 2.45320005,0.51911 3.03961805,-0.12887 0.261688,-0.28917 0.89371695,-0.67612 1.40450795,-0.8599 0.848591,-0.30532 0.611352,-0.34556 -2.749896,-0.46644 l -3.678605,-0.13229 -0.07573,-2.57969 c -0.04362,-1.48583 -0.18747,-2.57967 -0.339257,-2.57967 -0.444441,0 -0.724389,-1.14586 -0.435083,-1.78085 0.365141,-0.80144 1.139235,-0.99642 1.921354,-0.48395 0.7351,0.48165 0.862372,1.49334 0.251629,2.00021 -0.294984,0.24482 -0.396875,0.89843 -0.396875,2.54593 v 2.21656 h 3.57187505 3.57187495 v -2.24895 c 0,-1.89618 -0.08301,-2.33196 -0.529166,-2.77812 -0.670037,-0.67003 -0.673839,-1.37456 -0.01066,-1.97473 1.097481,-0.99321 2.843697,0.3716 2.145239,1.67668 -0.165611,0.30945 -0.415983,0.56263 -0.556384,0.56263 -0.141457,0 -0.255276,0.89144 -0.255276,1.99933 v 1.99933 l 0.79375,-0.46888 0.79375,-0.46888 v -2.82505 c 0,-2.26709 -0.07839,-2.85514 -0.396875,-2.97736 -0.667874,-0.25629 -0.494892,-1.67998 0.264584,-2.17761 0.61274,-0.40148 0.710176,-0.40148 1.322916,0 0.759476,0.49763 0.932458,1.92132 0.264584,2.17761 -0.316167,0.12132 -0.396875,0.69035 -0.396875,2.79813 0,2.30394 0.05408,2.62507 0.418515,2.48522 0.230182,-0.0883 0.58737,-0.1606 0.79375,-0.1606 0.268335,0 0.375235,-0.33919 0.375235,-1.19061 0,-0.65485 -0.114874,-1.19063 -0.255276,-1.19063 -0.140401,0 -0.390773,-0.25318 -0.556387,-0.56263 -0.698457,-1.30508 1.047758,-2.66989 2.145239,-1.67668 0.6631781,0.60017 0.6593761,1.3047 -0.01066,1.97473 -0.364392,0.36439 -0.528328,0.87931 -0.526476,1.65365 0.0026,1.06004 0.06317,1.14987 1.0583331,1.56784 l 1.055645,0.44337 v -3.15534 -3.15535 h 2.391963 c 2.039806,0 2.506351,-0.0846 3.168902,-0.57442 0.646112,-0.47769 0.885481,-0.52496 1.421548,-0.28071 1.262023,0.57502 1.09474,2.26468 -0.257823,2.60415 -0.479801,0.12043 -0.837169,0.009 -1.266185,-0.39375 -0.502163,-0.47175 -0.922803,-0.56152 -2.631186,-0.56152 h -2.033469 v 3.175 3.17499 h 2.983908 c 2.656488,0 3.033622,-0.0581 3.436993,-0.52917 0.545129,-0.63666 0.942194,-0.6637 1.72231,-0.11729 0.713209,0.49955 0.762035,1.46531 0.104185,2.06066 -0.643006,0.58191 -1.253572,0.55254 -1.897396,-0.0913 -0.454898,-0.45489 -0.881943,-0.52916 -3.042708,-0.52916 -1.382448,0 -2.513542,0.0539 -2.513542,0.11984 0,0.0659 0.138174,0.4231 0.307055,0.79375 l 0.307051,0.67391 h 3.6293 c 2.903265,0 3.695192,-0.0794 3.958678,-0.39688 0.89844,-1.08255 2.769669,0.25998 2.1766,1.56162 -0.153842,0.33765 -0.502595,0.67219 -0.775004,0.74343 -0.61022,0.15957 -1.66618,-0.20594 -1.66618,-0.57673 0,-0.17148 -1.101426,-0.27311 -2.959917,-0.27311 h -2.959918 l 0.76046,0.79375 c 0.899361,0.93873 1.983076,1.0413 2.951716,0.27937 0.996908,-0.78417 2.207659,-0.19919 2.207659,1.06663 0,1.16011 -1.648912,1.78537 -2.38125,0.90296 -0.181157,-0.21828 -0.671986,-0.39688 -1.090729,-0.39688 -0.693729,0 -0.761354,0.0823 -0.761354,0.92605 v 0.92604 h 2.248958 2.248959 v 2.40566 c 0,2.00503 0.08813,2.5177 0.529166,3.07839 0.291042,0.37 0.529167,0.83526 0.529167,1.03392 0,0.4838 -0.959252,1.41953 -1.455208,1.41953 -0.512834,0 -1.455209,-0.94238 -1.455209,-1.45521 0,-0.21828 0.238125,-0.635 0.529167,-0.92604 0.440973,-0.44098 0.529167,-0.88195 0.529167,-2.64584 v -2.11666 h -2.002009 c -1.727277,0 -2.120916,0.0907 -2.868316,0.66075 -0.485262,0.37012 -1.408486,0.73506 -2.099014,0.82971 l -1.232726,0.16896 v 1.38685 c 0,0.89364 0.137499,1.50096 0.386628,1.70772 1.077858,0.89454 0.485034,2.38976 -0.947491,2.38976 -1.236215,0 -1.7260221,-1.48497 -0.762053,-2.31035 0.405093,-0.34685 0.529166,-0.78051 0.529166,-1.8495 0,-1.37517 -0.01207,-1.3964 -0.79375,-1.3964 H 9.6106529 v 2.74573 c 0,2.11786 0.09075,2.82104 0.3968751,3.0751 0.542137,0.44993 0.499034,1.41303 -0.08698,1.94337 -0.577344,0.52249 -1.119132,0.55709 -1.6775601,0.10715 z m 6.1448211,-9.20211 c 0.637071,-0.34095 1.308261,-1.60932 1.308261,-2.47226 0,-0.88858 -1.182553,-2.2309 -2.196928,-2.49375 -0.645427,-0.16725 -0.867511,-0.39784 -0.998096,-1.03634 -0.835871,-4.08695 -6.1194441,-5.13968 -8.3177831,-1.65729 -0.495038,0.78419 -0.839083,1.0529 -1.348105,1.0529 -0.375893,0 -1.031041,0.24751 -1.455883,0.55002 -2.09738395,1.49347 -2.04135495,4.49998 0.108286,5.81069 0.771626,0.47049 1.361022,0.51656 6.619132,0.51746 3.4548681,5.9e-4 5.9764351,-0.10837 6.2811161,-0.27143 z"
         id="path418"
         sodipodi:nodetypes="ssscssssssccccccsssssssssccccsssssssssscsssscssssssssscsssssscccsssssscccsssssscsssssscscccscsscscccscsscssscssscsscsssssscccssssssscssscsssssscssssssscsscsss" /><circle
         id="path900"
         style="fill:#e6e6e6;stroke:#ffffff;stroke-width:0.264583"
         cx="36.49057"
         cy="143.65535"
         r="0.0016894616" /><path
         style="fill:#f0f0f0;fill-opacity:1;stroke:#ffffff;stroke-width:0.107"
         d="m 50.848668,142.09644 -15.487187,0.24164 -7.531564,5.67681 23.018751,-0.0941 v -5.82436"
         id="path958" /><path
         style="fill:#f0f0f0;fill-opacity:1;stroke:#ffffff;stroke-width:0.107"
         d="m 27.669181,149.86002 0.160736,1.68775 7.651427,6.9528 7.686377,0.18818 -0.123023,-6.64124 -7.589126,-0.11218 -0.113476,-2.07532 z"
         id="path960"
         sodipodi:nodetypes="cccccccc" /><path
         style="fill:#f0f0f0;fill-opacity:1;stroke:#ffffff;stroke-width:0.117453"
         d="m 43.38512,158.50355 h 8.518911 v 3.13101 l -9.410207,7.16095 -14.514048,-0.25775 v -6.86105 l 15.47159,0.0452 -0.06625,-3.21835"
         id="path962" /><path
         style="fill:#f0f0f0;fill-opacity:1;stroke:#ffffff;stroke-width:0.107"
         d="m 55.221136,142.09644 7.798364,7.86299 v -7.86299 h -7.798364"
         id="path964" /><path
         style="fill:#f0f0f0;fill-opacity:1;stroke:#ffffff;stroke-width:0.100214"
         d="m 55.346583,146.86261 7.726416,6.72882 -0.0535,14.96335 h -7.672917 v -21.69217"
         id="path966" /><path
         style="fill:#f0f0f0;fill-opacity:1;stroke:#ffffff;stroke-width:0.107"
         d="m 74.411966,142.0965 -0.01537,6.87916 H 88.41951 v -6.87916"
         id="path968" /><path
         style="fill:#f0f0f0;fill-opacity:1;stroke:#ffffff;stroke-width:0.107"
         d="m 74.342976,149.91351 -7.613912,0.17584 0.0076,11.71855 7.792183,6.99351 13.890625,0.018 v -7.14375 H 74.396601"
         id="path970" /><path
         style="fill:#f0f0f0;fill-opacity:1;stroke:#ffffff;stroke-width:0.107"
         d="m 91.998219,142.09644 h 7.798366 v 26.45834 h -7.672919"
         id="path972" /></g><text
       xml:space="preserve"
       transform="matrix(0.26458333,0,0,0.26458333,26.077854,106.11311)"
       id="text410"
       style="font-weight:bold;font-size:58.3952px;font-family:Calibri;-inkscape-font-specification:'Calibri Bold';white-space:pre;shape-inside:url(#rect412);display:inline;fill:#ffffff;stroke:#ffffff;stroke-width:0.404409" /></g></svg>
